HIERARCHY
ROOT Hips
{
 OFFSET 0.000000 0.000000 0.000000
 CHANNELS 6 Xposition Yposition Zposition Yrotation Xrotation Zrotation
 JOINT Chest
 {
  OFFSET 0.000000 10.354800 0.006500
  CHANNELS 3 Yrotation Xrotation Zrotation
  JOINT Chest2
  {
   OFFSET 0.000000 10.435800 -0.013200
   CHANNELS 3 Yrotation Xrotation Zrotation
   JOINT Chest3
   {
    OFFSET 0.000000 10.393700 0.000000
    CHANNELS 3 Yrotation Xrotation Zrotation
    JOINT Chest4
    {
     OFFSET 0.000000 10.383100 0.000000
     CHANNELS 3 Yrotation Xrotation Zrotation
     JOINT Neck
     {
      OFFSET 0.000000 15.694000 0.000000
      CHANNELS 3 Yrotation Xrotation Zrotation
      JOINT Head
      {
       OFFSET 0.000000 9.711000 -0.028000
       CHANNELS 3 Yrotation Xrotation Zrotation
       End Site
       {
        OFFSET 0.000000 18.578700 -0.014800
       }
      }
     }
     JOINT RightCollar
     {
      OFFSET -3.157200 10.367500 0.000000
      CHANNELS 3 Yrotation Xrotation Zrotation
      JOINT RightShoulder
      {
       OFFSET -14.482500 0.000000 0.000000
       CHANNELS 3 Yrotation Xrotation Zrotation
       JOINT RightElbow
       {
        OFFSET 0.000000 -31.707800 0.000000
        CHANNELS 3 Yrotation Xrotation Zrotation
        JOINT RightWrist
        {
         OFFSET 0.000000 -25.659300 0.000000
         CHANNELS 3 Yrotation Xrotation Zrotation
         End Site
         {
          OFFSET 0.000000 -18.994300 0.000000
         }
        }
       }
      }
     }
     JOINT LeftCollar
     {
      OFFSET 3.157200 10.367500 0.000000
      CHANNELS 3 Yrotation Xrotation Zrotation
      JOINT LeftShoulder
      {
       OFFSET 14.482500 0.000000 0.000000
       CHANNELS 3 Yrotation Xrotation Zrotation
       JOINT LeftElbow
       {
        OFFSET 0.000000 -31.707800 0.000000
        CHANNELS 3 Yrotation Xrotation Zrotation
        JOINT LeftWrist
        {
         OFFSET 0.000000 -25.659300 0.000000
         CHANNELS 3 Yrotation Xrotation Zrotation
         End Site
         {
          OFFSET 0.000000 -18.994300 0.000000
         }
        }
       }
      }
     }
    }
   }
  }
 }
 JOINT RightHip
 {
  OFFSET -8.365600 -0.032100 -0.003200
  CHANNELS 3 Yrotation Xrotation Zrotation
  JOINT RightKnee
  {
   OFFSET 0.000000 -43.980000 0.003100
   CHANNELS 3 Yrotation Xrotation Zrotation
   JOINT RightAnkle
   {
    OFFSET 0.000000 -42.882800 0.005200
    CHANNELS 3 Yrotation Xrotation Zrotation
    JOINT RightToe
    {
     OFFSET 0.000000 -4.915500 10.826300
     CHANNELS 3 Yrotation Xrotation Zrotation
     End Site
     {
      OFFSET 0.000000 -1.517500 6.175900
     }
    }
   }
  }
 }
 JOINT LeftHip
 {
  OFFSET 8.365600 -0.032100 -0.003200
  CHANNELS 3 Yrotation Xrotation Zrotation
  JOINT LeftKnee
  {
   OFFSET 0.000000 -43.980000 0.003100
   CHANNELS 3 Yrotation Xrotation Zrotation
   JOINT LeftAnkle
   {
    OFFSET 0.000000 -42.882800 0.005200
    CHANNELS 3 Yrotation Xrotation Zrotation
    JOINT LeftToe
    {
     OFFSET 0.000000 -4.915500 10.826300
     CHANNELS 3 Yrotation Xrotation Zrotation
     End Site
     {
      OFFSET 0.000000 -1.517500 6.175900
     }
    }
   }
  }
 }
}
MOTION
Frames: 11
Frame Time: 0.008333
0.000000 91.618600 0.000000 0.000000 -5.767877 0.000000 0.000000 11.653817 0.000000 0.000000 -5.885947 0.000000 0.000000 -0.000000 0.000000 0.000000 -0.000000 0.000000 0.000000 12.528835 0.000000 0.000000 0.711642 0.000000 0.000000 -0.000000 0.000000 0.000000 0.000000 -90.000000 0.000000 -2.309062 0.000000 0.000000 2.309062 0.000000 0.000000 -0.000000 0.000000 0.000000 -0.000000 90.000000 0.000000 -2.309062 0.000000 0.000000 2.309062 0.000000 0.000000 8.520406 0.000000 0.000000 1.905762 0.000000 -0.000000 -4.658285 0.000000 0.000000 -0.000000 0.000000 0.000000 8.520406 0.000000 0.000000 1.905762 0.000000 -0.000000 -4.658285 0.000000 0.000000 -0.000000 0.000000
-5.211174 126.347366 26.337164 174.521566 -17.930795 -6.069693 -1.578244 12.173477 4.476541 -0.159665 0.962625 0.366634 -0.257050 1.660912 0.629072 -1.469431 11.034166 4.073015 -0.498841 20.093069 -2.350905 0.019069 -4.384963 -2.385885 2.782320 7.714185 -2.792726 -8.111249 -15.390644 -6.713072 -121.729289 -51.748358 147.846462 -20.753254 -20.640423 -36.839637 -3.084510 9.620736 -1.470027 23.919927 -10.171351 -6.186223 133.120378 -50.310391 -160.248618 26.608804 -11.380299 39.638188 5.846053 -63.602718 7.364849 -104.099309 80.333352 -96.850991 1.830767 -8.591136 -15.368305 -0.005276 0.002571 -0.002395 -18.079209 -63.477956 14.007098 109.585938 80.293068 103.233814 -5.830663 -11.372497 3.714228 -0.005097 -0.001564 -0.002314
-5.208873 126.346018 26.338344 174.530659 -17.904070 -6.083075 -1.575594 12.167243 4.495689 -0.159324 0.963656 0.367373 -0.258068 1.663586 0.630146 -1.461141 11.045050 4.081381 -0.508892 20.073834 -2.357147 0.019889 -4.382554 -2.385839 2.780574 7.704750 -2.788845 -8.075899 -15.393538 -6.699073 -121.712962 -51.767173 147.819164 -20.739010 -20.647366 -36.859909 -3.096962 9.606421 -1.471739 23.887155 -10.200243 -6.195575 133.104651 -50.321368 -160.220307 26.618691 -11.382825 39.650113 5.833829 -63.627045 7.395158 -104.072300 80.311296 -96.822157 1.826806 -8.613064 -15.378151 0.004964 0.002682 0.002254 -18.098413 -63.504653 14.034759 109.606048 80.295461 103.259791 -5.829196 -11.373143 3.716561 -0.002190 -0.000108 -0.000994
-5.208538 126.345012 26.336678 174.531963 -17.888997 -6.081302 -1.566482 12.171670 4.502567 -0.159214 0.964675 0.367991 -0.261941 1.667911 0.629817 -1.457262 11.048446 4.086106 -0.502234 20.077053 -2.355489 0.011958 -4.396380 -2.387573 2.776815 7.688254 -2.790134 -8.013413 -15.362195 -6.662312 -121.770303 -51.802319 147.840607 -20.776569 -20.638814 -36.926208 -3.103700 9.594431 -1.468538 23.849507 -10.224586 -6.202317 133.084842 -50.323180 -160.189707 26.605038 -11.390317 39.661702 5.840770 -63.637559 7.397647 -104.140150 80.309388 -96.894073 1.817991 -8.699877 -15.400450 0.004851 -0.002997 0.002202 -18.087837 -63.523019 14.030439 109.616827 80.296748 103.274844 -5.825879 -11.370567 3.712799 0.000869 -0.000508 0.000395
-5.208169 126.344315 26.333401 174.532143 -17.880004 -6.078365 -1.562805 12.187433 4.504640 -0.158851 0.965135 0.368495 -0.260552 1.662488 0.630474 -1.449827 11.060303 4.092325 -0.502674 20.080165 -2.355560 0.032188 -4.340250 -2.392849 2.769296 7.669032 -2.793062 -8.008423 -15.369195 -6.660537 -121.588499 -51.813602 147.681578 -20.725873 -20.677971 -36.927849 -3.122719 9.591522 -1.465796 23.821029 -10.253285 -6.216137 133.066704 -50.328538 -160.169215 26.625740 -11.384919 39.651730 5.848117 -63.644395 7.398081 -104.195997 80.306649 -96.958639 1.807616 -8.756196 -15.401264 0.002690 -0.005930 0.001221 -18.078177 -63.534839 14.025416 109.622254 80.294835 103.281708 -5.838402 -11.368105 3.715038 0.001710 -0.002302 0.000776
-5.209223 126.343081 26.330683 174.537344 -17.863755 -6.069428 -1.541936 12.222110 4.514040 -0.159067 0.966991 0.369766 -0.271490 1.637324 0.625003 -1.452468 11.055675 4.093825 -0.501731 20.093633 -2.358112 0.035390 -4.327788 -2.397981 2.775821 7.685812 -2.778942 -7.987517 -15.387333 -6.653413 -121.577909 -51.832338 147.649516 -20.707791 -20.690576 -36.921145 -3.141389 9.584447 -1.462866 23.788906 -10.272700 -6.224880 133.055336 -50.327059 -160.151362 26.647016 -11.368784 39.633608 5.865992 -63.657789 7.374574 -104.269968 80.298627 -97.042152 1.811175 -8.811941 -15.397957 -0.000529 -0.007822 -0.000240 -18.069644 -63.554074 14.012415 109.630808 80.290143 103.278667 -5.830773 -11.368711 3.724092 0.000365 -0.003737 0.000166
-5.211614 126.340675 26.330938 174.571246 -17.824932 -6.063742 -1.567418 12.212918 4.508873 -0.159355 0.967780 0.370423 -0.267199 1.646441 0.628417 -1.464828 11.026335 4.087354 -0.476097 20.172638 -2.350089 0.012155 -4.387438 -2.401207 2.777668 7.692421 -2.774150 -7.939790 -15.345476 -6.628985 -121.630251 -51.845904 147.672294 -20.693316 -20.700336 -36.912930 -3.154411 9.591648 -1.459919 23.759296 -10.288644 -6.224987 132.982082 -50.323367 -160.112463 26.607128 -11.392751 39.643011 5.867972 -63.689134 7.338583 -104.367363 80.280585 -97.163289 1.826817 -8.865525 -15.375962 -0.007067 -0.005414 -0.003209 -18.093124 -63.592810 14.001376 109.621341 80.291989 103.264574 -5.823389 -11.369228 3.723790 0.004356 -0.001305 0.001978
-5.211408 126.339235 26.329108 174.577196 -17.802437 -6.063214 -1.569178 12.210935 4.513788 -0.158320 0.974698 0.372912 -0.267545 1.647686 0.629480 -1.462727 11.030463 4.093360 -0.475120 20.183184 -2.357323 0.022769 -4.360224 -2.411411 2.779706 7.686564 -2.773757 -7.927136 -15.341927 -6.629421 -121.603129 -51.849780 147.638835 -20.702688 -20.705507 -36.920859 -3.169910 9.570871 -1.468046 23.697423 -10.304273 -6.212486 133.023525 -50.316350 -160.100794 26.602500 -11.397548 39.642706 5.874757 -63.713204 7.330770 -104.394837 80.268640 -97.195623 1.824703 -8.878383 -15.370866 -0.004718 -0.009306 -0.002142 -18.100376 -63.613191 14.008820 109.625955 80.298471 103.266274 -5.830968 -11.370477 3.728516 0.006267 -0.000251 0.002845
-5.212391 126.337685 26.327060 174.583616 -17.780428 -6.056601 -1.572843 12.214700 4.513538 -0.160545 0.962394 0.370311 -0.265769 1.662117 0.633654 -1.459168 11.058385 4.107228 -0.480909 20.148539 -2.374820 0.039468 -4.309308 -2.419607 2.778136 7.688529 -2.769406 -7.921198 -15.385935 -6.644393 -121.544715 -51.859041 147.578635 -20.715187 -20.715731 -36.924467 -3.179906 9.518216 -1.484163 23.649954 -10.311620 -6.197667 133.044018 -50.312211 -160.089003 26.619351 -11.384679 39.613659 5.905114 -63.737182 7.297452 -104.421748 80.258154 -97.222265 1.816544 -8.870600 -15.367830 -0.001902 -0.010932 -0.000863 -18.098978 -63.634540 14.005692 109.615070 80.294442 103.234318 -5.843522 -11.368236 3.754278 -0.000365 -0.001211 -0.000166
-5.212683 126.336330 26.324709 174.588423 -17.761398 -6.053514 -1.571619 12.226643 4.517853 -0.164328 0.943984 0.367746 -0.265396 1.670483 0.634937 -1.456710 11.077360 4.117546 -0.482896 20.129489 -2.386187 0.042147 -4.301367 -2.422840 2.778500 7.669932 -2.777235 -7.919116 -15.392357 -6.645655 -121.511093 -51.867418 147.541495 -20.736777 -20.719959 -36.929366 -3.191422 9.496948 -1.490399 23.627094 -10.331260 -6.200139 133.018969 -50.325777 -160.074227 26.615204 -11.395222 39.591822 5.938846 -63.758251 7.264638 -104.405037 80.238138 -97.209149 1.824654 -8.838008 -15.359515 -0.002925 -0.010507 -0.001328 -18.100951 -63.651844 14.008547 109.627193 80.293825 103.237224 -5.877317 -11.368233 3.770401 -0.004419 -0.001028 -0.002006
-5.210903 126.335380 26.322011 174.594691 -17.746410 -6.062256 -1.570002 12.236024 4.530676 -0.166434 0.946999 0.368972 -0.267998 1.650667 0.631608 -1.452398 11.103231 4.127842 -0.467496 20.186602 -2.384103 0.026161 -4.361591 -2.429401 2.778270 7.667408 -2.779511 -7.916272 -15.390624 -6.643838 -121.543331 -51.862637 147.573735 -20.764360 -20.680133 -36.990977 -3.202428 9.483445 -1.491229 23.625448 -10.348431 -6.212943 132.995661 -50.342159 -160.074360 26.609478 -11.394552 39.580353 5.987449 -63.776444 7.233981 -104.361294 80.211639 -97.153251 1.828821 -8.786187 -15.353651 0.001308 -0.009291 0.000594 -18.085220 -63.661042 14.008990 109.642935 80.306013 103.255281 -5.887898 -11.377153 3.781067 -0.002936 0.002094 -0.001333
